<svg width="23" height="21" viewBox="0 0 23 21" fill="none" xmlns="http://www.w3.org/2000/svg">
<path d="M13.6813 20.3789C14.3308 20.3789 14.9536 20.1155 15.4128 19.6467C15.872 19.1778 16.13 18.5419 16.13 17.8789C16.13 17.2159 15.872 16.58 15.4128 16.1111C14.9536 15.6423 14.3308 15.3789 13.6813 15.3789C13.0319 15.3789 12.409 15.6423 11.9498 16.1111C11.4906 16.58 11.2326 17.2159 11.2326 17.8789C11.2326 18.5419 11.4906 19.1778 11.9498 19.6467C12.409 20.1155 13.0319 20.3789 13.6813 20.3789ZM5.11078 20.3789C5.76022 20.3789 6.38307 20.1155 6.84229 19.6467C7.30151 19.1778 7.5595 18.5419 7.5595 17.8789C7.5595 17.2159 7.30151 16.58 6.84229 16.1111C6.38307 15.6423 5.76022 15.3789 5.11078 15.3789C4.46134 15.3789 3.8385 15.6423 3.37927 16.1111C2.92005 16.58 2.66206 17.2159 2.66206 17.8789C2.66206 18.5419 2.92005 19.1778 3.37927 19.6467C3.8385 20.1155 4.46134 20.3789 5.11078 20.3789ZM21.074 2.78266C21.3796 2.77259 21.6695 2.64156 21.8822 2.41726C22.0949 2.19296 22.2139 1.89299 22.2139 1.58078C22.2139 1.26857 22.0949 0.968599 21.8822 0.744303C21.6695 0.520007 21.3796 0.388971 21.074 0.378906H19.6648C18.5604 0.378906 17.6054 1.16141 17.3654 2.26141L15.8313 9.31391C15.5913 10.4139 14.6363 11.1964 13.5319 11.1964H4.33454L2.56901 3.98391H14.0107C14.3134 3.9698 14.5992 3.83708 14.8086 3.61335C15.018 3.38961 15.1348 3.09209 15.1348 2.78266C15.1348 2.47322 15.018 2.1757 14.8086 1.95197C14.5992 1.72823 14.3134 1.59551 14.0107 1.58141H2.56901C2.21109 1.5813 1.85785 1.6645 1.53615 1.8247C1.21446 1.98489 0.932772 2.21786 0.712507 2.50589C0.492241 2.79391 0.339193 3.12942 0.265003 3.4869C0.190813 3.84438 0.19743 4.21443 0.284351 4.56891L2.04988 11.7789C2.17716 12.2992 2.47117 12.761 2.88515 13.091C3.29913 13.421 3.80931 13.6002 4.33454 13.6002H13.5319C14.6035 13.6003 15.6431 13.2273 16.479 12.5428C17.3148 11.8583 17.897 10.9031 18.1294 9.83516L19.6648 2.78266H21.074Z"/>
</svg>
