<svg width="15" height="14" viewBox="0 0 15 14" fill="none" xmlns="http://www.w3.org/2000/svg">
<path d="M7.7998 12.6C9.28502 12.6 10.7094 12.01 11.7596 10.9598C12.8098 9.90959 13.3998 8.48521 13.3998 7C13.3998 5.51479 12.8098 4.09041 11.7596 3.0402C10.7094 1.99 9.28502 1.4 7.7998 1.4C6.31459 1.4 4.89021 1.99 3.84001 3.0402C2.7898 4.09041 2.1998 5.51479 2.1998 7C2.1998 8.48521 2.7898 9.90959 3.84001 10.9598C4.89021 12.01 6.31459 12.6 7.7998 12.6ZM7.7998 0C8.71906 0 9.62931 0.18106 10.4786 0.532843C11.3279 0.884626 12.0995 1.40024 12.7496 2.05025C13.3996 2.70026 13.9152 3.47194 14.267 4.32122C14.6187 5.17049 14.7998 6.08075 14.7998 7C14.7998 8.85651 14.0623 10.637 12.7496 11.9497C11.4368 13.2625 9.65632 14 7.7998 14C3.9288 14 0.799805 10.85 0.799805 7C0.799805 5.14348 1.5373 3.36301 2.85006 2.05025C4.16281 0.737498 5.94329 0 7.7998 0ZM8.1498 3.5V7.175L11.2998 9.044L10.7748 9.905L7.0998 7.7V3.5H8.1498Z" fill="white"/>
</svg>
