<svg width="25" height="24" viewBox="0 0 25 24" fill="none" xmlns="http://www.w3.org/2000/svg">
<path d="M5.18206 0C2.75448 0 0.799805 1.95468 0.799805 4.38226V19.6178C0.799805 22.0453 2.75448 24 5.18206 24H13.4396V14.6175H10.9586V11.2395H13.4396V8.35351C13.4396 6.08611 14.9055 4.00426 18.2823 4.00426C19.6495 4.00426 20.6606 4.13551 20.6606 4.13551L20.5811 7.29003C20.5811 7.29003 19.5499 7.28028 18.4248 7.28028C17.2071 7.28028 17.0118 7.84135 17.0118 8.77279V11.2395H20.6778L20.5181 14.6175H17.0118V24.0001H20.4175C22.8451 24.0001 24.7998 22.0454 24.7998 19.6178V4.38228C24.7998 1.9547 22.8451 2.4e-05 20.4175 2.4e-05L5.18206 0Z"/>
</svg>
