<svg width="23" height="24" viewBox="0 0 23 24" fill="none" xmlns="http://www.w3.org/2000/svg">
<path d="M18.0357 2.69726L18.6582 6.62384L22.2398 8.44471L20.4337 12.0051L22.25 15.5655L18.6378 17.3863L18.0153 21.3129L14.0459 20.6924L11.2194 23.5L8.38265 20.6517L4.44388 21.3027L3.81122 17.3456L0.25 15.5349L2.06633 11.9746L0.260204 8.44471L3.84184 6.60349L4.46429 2.70743L8.41327 3.35847L11.25 0.5L14.0765 3.31778L18.0357 2.69726ZM8.69898 6.91884C8.29304 6.91884 7.90372 7.0796 7.61667 7.36576C7.32963 7.65192 7.16837 8.04003 7.16837 8.44471C7.16837 8.8494 7.32963 9.23751 7.61667 9.52367C7.90372 9.80983 8.29304 9.97059 8.69898 9.97059C9.10492 9.97059 9.49424 9.80983 9.78129 9.52367C10.0683 9.23751 10.2296 8.8494 10.2296 8.44471C10.2296 8.04003 10.0683 7.65192 9.78129 7.36576C9.49424 7.0796 9.10492 6.91884 8.69898 6.91884ZM13.801 14.0396C13.3951 14.0396 13.0058 14.2003 12.7187 14.4865C12.4317 14.7727 12.2704 15.1608 12.2704 15.5655C12.2704 15.9701 12.4317 16.3583 12.7187 16.6444C13.0058 16.9306 13.3951 17.0913 13.801 17.0913C14.207 17.0913 14.5963 16.9306 14.8833 16.6444C15.1704 16.3583 15.3316 15.9701 15.3316 15.5655C15.3316 15.1608 15.1704 14.7727 14.8833 14.4865C14.5963 14.2003 14.207 14.0396 13.801 14.0396ZM7.58673 17.0913L16.352 8.35316L14.9133 6.91884L6.14796 15.657L7.58673 17.0913Z" fill="#072952"/>
</svg>
