<svg width="23" height="22" viewBox="0 0 23 22" fill="none" xmlns="http://www.w3.org/2000/svg">
<path d="M16.75 11V1.1C16.75 0.808262 16.6341 0.528472 16.4278 0.322183C16.2215 0.115892 15.9417 0 15.65 0H1.35C1.05826 0 0.778472 0.115892 0.572183 0.322183C0.365892 0.528472 0.25 0.808262 0.25 1.1V16.5L4.65 12.1H15.65C15.9417 12.1 16.2215 11.9841 16.4278 11.7778C16.6341 11.5715 16.75 11.2917 16.75 11ZM21.15 4.4H18.95V14.3H4.65V16.5C4.65 16.7917 4.76589 17.0715 4.97218 17.2778C5.17847 17.4841 5.45826 17.6 5.75 17.6H17.85L22.25 22V5.5C22.25 5.20826 22.1341 4.92847 21.9278 4.72218C21.7215 4.51589 21.4417 4.4 21.15 4.4Z" fill="#072952"/>
</svg>
