<svg width="21" height="20" viewBox="0 0 21 20" fill="none" xmlns="http://www.w3.org/2000/svg">
<path d="M14.75 16C15.85 16 16.74 16.9 16.74 18C16.74 19.1 15.85 20 14.75 20C13.65 20 12.75 19.1 12.75 18C12.75 16.9 13.65 16 14.75 16ZM20.75 0V2H18.75L15.15 9.59L16.5 12.04C16.66 12.32 16.75 12.65 16.75 13C16.75 14.1 15.85 15 14.75 15H2.75V13H14.33C14.47 13 14.58 12.89 14.58 12.75L14.55 12.63L13.65 11H6.2C5.45 11 4.79 10.59 4.45 9.97L0.870001 3.48C0.790001 3.34 0.75 3.17 0.75 3C0.75 2.45 1.2 2 1.75 2H16.54L17.48 0H20.75ZM4.75 16C5.85 16 6.74 16.9 6.74 18C6.74 19.1 5.85 20 4.75 20C3.65 20 2.75 19.1 2.75 18C2.75 16.9 3.65 16 4.75 16Z" fill="#072952"/>
</svg>
