<svg width="15" height="11" viewBox="0 0 15 11" fill="none" xmlns="http://www.w3.org/2000/svg">
<path d="M7.7998 0C5.15147 0 2.74814 1.03053 0.968971 2.70368C0.863971 2.80789 0.799805 2.95263 0.799805 3.11474C0.799805 3.27684 0.863971 3.42158 0.968971 3.52579L2.41564 4.96158C2.52064 5.06579 2.66647 5.12947 2.84147 5.12947C2.9873 5.12947 3.13314 5.06579 3.23814 4.96737C3.69897 4.53895 4.22397 4.18 4.7898 3.89632C4.9823 3.80368 5.11647 3.60684 5.11647 3.37526V1.58053C5.9623 1.30263 6.86064 1.15789 7.7998 1.15789C8.7273 1.15789 9.63147 1.30263 10.4773 1.57474V3.36947C10.4773 3.59526 10.6115 3.79789 10.804 3.89053C11.3756 4.17421 11.8831 4.53895 12.3615 4.96158C12.4665 5.06579 12.6123 5.12368 12.7581 5.12368C12.9331 5.12368 13.079 5.06 13.184 4.95579L14.6306 3.52C14.7356 3.41579 14.7998 3.27105 14.7998 3.10895C14.7998 2.94684 14.7298 2.80789 14.6248 2.70368C12.8456 1.03053 10.4423 0 7.7998 0ZM6.0498 2.31579V4.05263C6.0498 4.05263 2.5498 6.94737 2.5498 8.68421V11H13.0498V8.68421C13.0498 6.94737 9.5498 4.05263 9.5498 4.05263V2.31579H8.38314V3.47368H7.21647V2.31579H6.0498ZM7.7998 5.21053C8.41864 5.21053 9.01214 5.45451 9.44972 5.88881C9.88731 6.3231 10.1331 6.91213 10.1331 7.52632C10.1331 8.1405 9.88731 8.72953 9.44972 9.16383C9.01214 9.59812 8.41864 9.8421 7.7998 9.8421C7.18097 9.8421 6.58747 9.59812 6.14989 9.16383C5.7123 8.72953 5.46647 8.1405 5.46647 7.52632C5.46647 6.91213 5.7123 6.3231 6.14989 5.88881C6.58747 5.45451 7.18097 5.21053 7.7998 5.21053ZM7.7998 6.07895C7.41303 6.07895 7.0421 6.23144 6.76861 6.50287C6.49512 6.77431 6.34147 7.14245 6.34147 7.52632C6.34147 7.91018 6.49512 8.27833 6.76861 8.54976C7.0421 8.82119 7.41303 8.97368 7.7998 8.97368C8.18658 8.97368 8.55751 8.82119 8.831 8.54976C9.10449 8.27833 9.25814 7.91018 9.25814 7.52632C9.25814 7.14245 9.10449 6.77431 8.831 6.50287C8.55751 6.23144 8.18658 6.07895 7.7998 6.07895Z" fill="white"/>
</svg>
