<svg width="13" height="16" viewBox="0 0 13 16" fill="none" xmlns="http://www.w3.org/2000/svg">
<path d="M6.7998 7.625C6.23148 7.625 5.68644 7.42746 5.28458 7.07583C4.88271 6.72419 4.65695 6.24728 4.65695 5.75C4.65695 5.25272 4.88271 4.77581 5.28458 4.42417C5.68644 4.07254 6.23148 3.875 6.7998 3.875C7.36813 3.875 7.91317 4.07254 8.31503 4.42417C8.7169 4.77581 8.94266 5.25272 8.94266 5.75C8.94266 5.99623 8.88724 6.24005 8.77955 6.46753C8.67186 6.69502 8.51402 6.90172 8.31503 7.07583C8.11605 7.24994 7.87982 7.38805 7.61984 7.48227C7.35986 7.5765 7.08121 7.625 6.7998 7.625ZM6.7998 0.5C5.20851 0.5 3.68238 1.05312 2.55716 2.03769C1.43195 3.02226 0.799805 4.35761 0.799805 5.75C0.799805 9.6875 6.7998 15.5 6.7998 15.5C6.7998 15.5 12.7998 9.6875 12.7998 5.75C12.7998 4.35761 12.1677 3.02226 11.0424 2.03769C9.91723 1.05312 8.3911 0.5 6.7998 0.5Z" fill="white"/>
</svg>
