<svg width="38" height="38" viewBox="0 0 38 38" fill="none" xmlns="http://www.w3.org/2000/svg">
<path d="M0 19C0 8.50659 8.50659 0 19 0C29.4934 0 38 8.50659 38 19C38 29.4934 29.4934 38 19 38C8.50659 38 0 29.4934 0 19Z" fill="#F4F4F4"/>
<path d="M19.0001 13.9511C20.5462 13.9511 21.5891 14.6189 22.1837 15.177L24.5073 12.9082C23.0802 11.5818 21.2231 10.7676 19.0001 10.7676C15.78 10.7676 12.9989 12.6155 11.645 15.3051L14.3071 17.3725C14.9749 15.3874 16.8229 13.9511 19.0001 13.9511Z" fill="#EA4335"/>
<path d="M26.904 19.1833C26.904 18.5063 26.8491 18.0123 26.7302 17.5H19V20.5555H23.5375C23.446 21.3148 22.952 22.4583 21.8542 23.2267L24.4523 25.2393C26.0075 23.8031 26.904 21.6899 26.904 19.1833Z" fill="#4285F4"/>
<path d="M14.3163 20.6289C14.1425 20.1166 14.0419 19.5677 14.0419 19.0005C14.0419 18.4334 14.1425 17.8845 14.3072 17.3722L11.6451 15.3047C11.087 16.4208 10.7668 17.6741 10.7668 19.0005C10.7668 20.327 11.087 21.5803 11.6451 22.6964L14.3163 20.6289Z" fill="#FBBC05"/>
<path d="M19 27.2339C21.223 27.2339 23.0892 26.502 24.4523 25.2396L21.8542 23.227C21.159 23.7118 20.2259 24.0503 19 24.0503C16.8228 24.0503 14.9748 22.6141 14.3162 20.6289L11.6541 22.6964C13.008 25.3859 15.7799 27.2339 19 27.2339Z" fill="#34A853"/>
</svg>
