<svg width="22" height="23" viewBox="0 0 22 23" fill="none" xmlns="http://www.w3.org/2000/svg">
<path d="M9.55419 5.24101L6.1712 1.33601C5.78121 0.886007 5.06621 0.888007 4.61321 1.34201L1.83123 4.12901C1.00323 4.95801 0.766233 6.18901 1.24523 7.17601C4.10683 13.101 8.88524 17.8861 14.8062 20.756C15.7922 21.235 17.0221 20.998 17.8501 20.169L20.6581 17.356C21.1131 16.901 21.1141 16.182 20.6601 15.792L16.7401 12.427C16.3301 12.075 15.6932 12.121 15.2822 12.533L13.9182 13.899C13.8483 13.9722 13.7564 14.0204 13.6565 14.0363C13.5566 14.0522 13.4543 14.0349 13.3652 13.987C11.1356 12.7031 9.28618 10.8512 8.00519 8.62001C7.95722 8.53076 7.93985 8.42823 7.95575 8.32816C7.97164 8.22809 8.01993 8.136 8.09319 8.06601L9.45319 6.70501C9.86518 6.29101 9.91018 5.65101 9.55419 5.24001V5.24101Z" stroke="#00479B" stroke-width="2" stroke-linecap="round" fill="transparent" stroke-linejoin="round"/>
</svg>
