<svg width="23" height="16" viewBox="0 0 23 16" fill="none" xmlns="http://www.w3.org/2000/svg">
<path d="M21.5084 0H1.51319C1.08781 0 0.744141 0.325 0.744141 0.727273V15.2727C0.744141 15.675 1.08781 16 1.51319 16H21.5084C21.9338 16 22.2775 15.675 22.2775 15.2727V0.727273C22.2775 0.325 21.9338 0 21.5084 0ZM20.5471 2.51818V14.3636H2.4745V2.51818L1.81119 2.02955L2.75568 0.881818L3.78428 1.63864H19.2397L20.2683 0.881818L21.2128 2.02955L20.5471 2.51818ZM19.2397 1.63636L11.5108 7.31818L3.78188 1.63636L2.75328 0.879545L1.80879 2.02727L2.47209 2.51591L10.6817 8.55227C10.9178 8.72573 11.2082 8.81989 11.5072 8.81989C11.8062 8.81989 12.0966 8.72573 12.3327 8.55227L20.5471 2.51818L21.2104 2.02955L20.2659 0.881818L19.2397 1.63636Z" fill="#00479B"/>
</svg>
