<svg width="21" height="22" viewBox="0 0 21 22" fill="none" xmlns="http://www.w3.org/2000/svg">
<g clip-path="url(#clip0)">
<path d="M10.4141 5.23438C9.89489 5.23437 9.38737 5.38833 8.95569 5.67677C8.52401 5.96521 8.18756 6.37517 7.98888 6.85483C7.7902 7.33449 7.73822 7.86229 7.8395 8.37149C7.94079 8.88069 8.1908 9.34842 8.55791 9.71553C8.92502 10.0826 9.39275 10.3326 9.90195 10.4339C10.4112 10.5352 10.939 10.4832 11.4186 10.2846C11.8983 10.0859 12.3082 9.74942 12.5967 9.31775C12.8851 8.88607 13.0391 8.37855 13.0391 7.85937C13.0383 7.16342 12.7615 6.49621 12.2693 6.00409C11.7772 5.51198 11.11 5.23517 10.4141 5.23438ZM10.4141 9.17187C10.1545 9.17187 9.90072 9.0949 9.68488 8.95068C9.46904 8.80646 9.30081 8.60147 9.20147 8.36165C9.10213 8.12182 9.07614 7.85792 9.12678 7.60332C9.17743 7.34872 9.30243 7.11485 9.48599 6.9313C9.66954 6.74774 9.90341 6.62274 10.158 6.57209C10.4126 6.52145 10.6765 6.54744 10.9163 6.64678C11.1562 6.74612 11.3611 6.91435 11.5054 7.13019C11.6496 7.34603 11.7266 7.59979 11.7266 7.85937C11.7262 8.20735 11.5878 8.54095 11.3417 8.78701C11.0956 9.03306 10.762 9.17147 10.4141 9.17187Z" fill="#00479B"/>
<path d="M15.4583 2.81138C14.2111 1.56453 12.5463 0.823841 10.7851 0.732283C9.02397 0.640726 7.29131 1.20478 5.92157 2.3156C4.55183 3.42641 3.64211 5.00523 3.36798 6.74734C3.09385 8.48945 3.47475 10.2714 4.43717 11.7491L9.39624 19.3622C9.5066 19.5316 9.65749 19.6708 9.83524 19.7671C10.013 19.8634 10.212 19.9139 10.4141 19.9139C10.6163 19.9139 10.8153 19.8634 10.9931 19.7671C11.1708 19.6708 11.3217 19.5316 11.4321 19.3622L16.3913 11.7491C17.2843 10.3783 17.679 8.74211 17.5091 7.11488C17.3392 5.48765 16.6152 3.96826 15.4583 2.81138ZM15.2916 11.0327L10.4142 18.5201L5.53671 11.0327C4.04374 8.74081 4.36395 5.67366 6.29809 3.73944C6.83861 3.1989 7.48031 2.77012 8.18655 2.47758C8.89279 2.18504 9.64974 2.03447 10.4142 2.03447C11.1786 2.03447 11.9355 2.18504 12.6418 2.47758C13.348 2.77012 13.9897 3.1989 14.5303 3.73944C16.4644 5.67366 16.7846 8.74081 15.2916 11.0327Z" fill="#00479B"/>
</g>
<defs>
<clipPath id="clip0">
<rect width="21" height="21" fill="white" transform="translate(0 0.00195312)"/>
</clipPath>
</defs>
</svg>
