<svg width="23" height="24" viewBox="0 0 23 24" fill="none" xmlns="http://www.w3.org/2000/svg">
<path d="M21.2252 9.25635H15.4752C15.3764 9.25635 15.2955 9.33721 15.2955 9.43604V10.5142C15.2955 10.613 15.3764 10.6938 15.4752 10.6938H21.2252C21.324 10.6938 21.4049 10.613 21.4049 10.5142V9.43604C21.4049 9.33721 21.324 9.25635 21.2252 9.25635ZM18.2154 12.311H15.4752C15.3764 12.311 15.2955 12.3919 15.2955 12.4907V13.5688C15.2955 13.6677 15.3764 13.7485 15.4752 13.7485H18.2154C18.3143 13.7485 18.3951 13.6677 18.3951 13.5688V12.4907C18.3951 12.3919 18.3143 12.311 18.2154 12.311ZM10.7202 7.24609H9.74766C9.6084 7.24609 9.49609 7.3584 9.49609 7.49766V13.068C9.49609 13.1488 9.53428 13.2229 9.59941 13.2701L12.9438 15.7094C13.0562 15.7902 13.2134 15.7678 13.2942 15.6555L13.8715 14.8671V14.8648C13.9523 14.7525 13.9276 14.5953 13.8153 14.5145L10.9695 12.457V7.49766C10.9718 7.3584 10.8572 7.24609 10.7202 7.24609Z" fill="#00479B"/>
<path d="M18.0766 15.1378H16.7783C16.6526 15.1378 16.5335 15.2029 16.4661 15.3107C16.1809 15.7622 15.8485 16.18 15.4666 16.5618C14.8085 17.2199 14.0426 17.7365 13.1913 18.0959C12.3086 18.4688 11.372 18.6574 10.4062 18.6574C9.4381 18.6574 8.50148 18.4688 7.62101 18.0959C6.76974 17.7365 6.00382 17.2199 5.34572 16.5618C4.68761 15.9037 4.17101 15.1378 3.81164 14.2865C3.43878 13.4061 3.25011 12.4694 3.25011 11.5014C3.25011 10.5333 3.43878 9.59893 3.81164 8.71621C4.17101 7.86494 4.68761 7.09903 5.34572 6.44092C6.00382 5.78281 6.76974 5.26621 7.62101 4.90684C8.50148 4.53399 9.44035 4.34531 10.4062 4.34531C11.3742 4.34531 12.3109 4.53399 13.1913 4.90684C14.0426 5.26621 14.8085 5.78281 15.4666 6.44092C15.8485 6.82276 16.1809 7.24053 16.4661 7.69199C16.5335 7.79981 16.6526 7.86494 16.7783 7.86494H18.0766C18.2316 7.86494 18.3304 7.70322 18.2608 7.56621C16.7963 4.65303 13.827 2.75957 10.5117 2.72139C5.65793 2.66074 1.62619 6.63408 1.6172 11.4834C1.60822 16.3417 5.54562 20.2836 10.4039 20.2836C13.7618 20.2836 16.7806 18.3834 18.2608 15.4365C18.3304 15.2995 18.2293 15.1378 18.0766 15.1378Z" fill="#00479B"/>
</svg>
