<svg width="25" height="24" viewBox="0 0 25 24" fill="none" xmlns="http://www.w3.org/2000/svg">
<path d="M12.7966 7.9983C10.5931 7.9983 8.79495 9.79651 8.79495 12C8.79495 14.2035 10.5931 16.0017 12.7966 16.0017C15 16.0017 16.7982 14.2035 16.7982 12C16.7982 9.79651 15 7.9983 12.7966 7.9983ZM24.7985 12C24.7985 10.3429 24.8135 8.70077 24.7204 7.04665C24.6274 5.12536 24.1891 3.4202 22.7841 2.01525C21.3762 0.607302 19.6741 0.172009 17.7528 0.0789456C16.0957 -0.0141172 14.4537 0.000892936 12.7996 0.000892936C11.1425 0.000892936 9.50041 -0.0141172 7.84633 0.0789456C5.92507 0.172009 4.21994 0.610305 2.81502 2.01525C1.4071 3.42321 0.97181 5.12536 0.878749 7.04665C0.785688 8.70377 0.800698 10.3459 0.800698 12C0.800698 13.6541 0.785688 15.2992 0.878749 16.9533C0.97181 18.8746 1.4101 20.5798 2.81502 21.9847C4.22295 23.3927 5.92507 23.828 7.84633 23.9211C9.50342 24.0141 11.1455 23.9991 12.7996 23.9991C14.4567 23.9991 16.0987 24.0141 17.7528 23.9211C19.6741 23.828 21.3792 23.3897 22.7841 21.9847C24.1921 20.5768 24.6274 18.8746 24.7204 16.9533C24.8165 15.2992 24.7985 13.6571 24.7985 12ZM12.7966 18.1572C9.38934 18.1572 6.63953 15.4073 6.63953 12C6.63953 8.5927 9.38934 5.84284 12.7966 5.84284C16.2038 5.84284 18.9536 8.5927 18.9536 12C18.9536 15.4073 16.2038 18.1572 12.7966 18.1572ZM19.2058 7.02864C18.4103 7.02864 17.7678 6.38621 17.7678 5.59067C17.7678 4.79513 18.4103 4.1527 19.2058 4.1527C20.0013 4.1527 20.6437 4.79513 20.6437 5.59067C20.644 5.77957 20.6069 5.96667 20.5348 6.14124C20.4626 6.31581 20.3567 6.47442 20.2231 6.608C20.0895 6.74157 19.9309 6.84748 19.7563 6.91967C19.5818 6.99185 19.3947 7.02888 19.2058 7.02864Z"/>
</svg>
