<svg width="23" height="21" viewBox="0 0 23 21" fill="none" xmlns="http://www.w3.org/2000/svg">
<path d="M11.61 17.4482L11.5 17.5572L11.379 17.4482C6.154 12.7507 2.7 9.64441 2.7 6.49455C2.7 4.31471 4.35 2.67984 6.55 2.67984C8.244 2.67984 9.894 3.76975 10.477 5.25204H12.523C13.106 3.76975 14.756 2.67984 16.45 2.67984C18.65 2.67984 20.3 4.31471 20.3 6.49455C20.3 9.64441 16.846 12.7507 11.61 17.4482ZM16.45 0.5C14.536 0.5 12.699 1.38283 11.5 2.76703C10.301 1.38283 8.464 0.5 6.55 0.5C3.162 0.5 0.5 3.1267 0.5 6.49455C0.5 10.6035 4.24 13.9714 9.905 19.0613L11.5 20.5L13.095 19.0613C18.76 13.9714 22.5 10.6035 22.5 6.49455C22.5 3.1267 19.838 0.5 16.45 0.5Z"/>
</svg>
