<svg width="34" height="24" viewBox="0 0 34 24" fill="none" xmlns="http://www.w3.org/2000/svg">
<g clip-path="url(#clip0)">
<path d="M0.686035 3C0.686035 1.34314 1.92897 0 3.46221 0H31.2239C32.7572 0 34.0001 1.34314 34.0001 3V21C34.0001 22.6568 32.7572 24 31.2239 24H3.46221C1.92897 24 0.686035 22.6568 0.686035 21V3Z" fill="#CCEFFF"/>
<path d="M20.9865 19.0791H13.6997V4.92773H20.9865V19.0791Z" fill="#6C6BBD"/>
<path d="M14.1665 12C14.1665 9.12933 15.4103 6.57221 17.3473 4.9243C15.9308 3.71927 14.1432 3.00003 12.2005 3.00003C7.60126 3.00003 3.87305 7.02939 3.87305 12C3.87305 16.9706 7.60126 21 12.2005 21C14.1432 21 15.9308 20.2808 17.3473 19.0757C15.4103 17.4278 14.1665 14.8707 14.1665 12Z" fill="#EB001B"/>
<path d="M30.8136 12C30.8136 16.9706 27.0854 21 22.4862 21C20.5434 21 18.7558 20.2808 17.3389 19.0757C19.2763 17.4278 20.5201 14.8707 20.5201 12C20.5201 9.12933 19.2763 6.57221 17.3389 4.9243C18.7558 3.71927 20.5434 3.00003 22.4862 3.00003C27.0854 3.00003 30.8136 7.02939 30.8136 12Z" fill="#0099DF"/>
</g>
<defs>
<clipPath id="clip0">
<rect width="33.3141" height="24" fill="white" transform="translate(0.686035)"/>
</clipPath>
</defs>
</svg>
