<svg width="38" height="38" viewBox="0 0 38 38" fill="none" xmlns="http://www.w3.org/2000/svg">
<path d="M0 19C0 8.50659 8.50659 0 19 0C29.4934 0 38 8.50659 38 19C38 29.4934 29.4934 38 19 38C8.50659 38 0 29.4934 0 19Z" fill="#005FF9"/>
<path fill-rule="evenodd" clip-rule="evenodd" d="M7.91675 18.9679C7.91675 12.8739 12.8886 7.91602 18.9999 7.91602C25.1112 7.91602 30.0832 12.8739 30.0832 18.9679C30.0832 19.8312 30.0111 20.5301 29.8497 21.2316L29.8473 21.2432C29.8469 21.2453 29.7668 21.5687 29.7226 21.7098C29.4487 22.5834 28.9527 23.311 28.2883 23.8139C27.644 24.3017 26.8451 24.5704 26.0388 24.5704C25.9392 24.5704 25.8389 24.5664 25.7407 24.5585C24.5957 24.4668 23.589 23.866 22.9717 22.908C21.91 23.9726 20.5014 24.5583 18.9999 24.5583C15.9087 24.5583 13.3938 22.0505 13.3938 18.9679C13.3938 15.8854 15.9087 13.3777 18.9999 13.3777C22.0911 13.3777 24.606 15.8854 24.606 18.9679V20.77C24.6107 21.8214 25.3182 22.2513 25.9227 22.2999C26.5242 22.3462 27.3246 21.9968 27.6034 20.8566C27.741 20.2313 27.8108 19.5957 27.8108 18.9679C27.8108 14.1232 23.8583 10.1819 18.9999 10.1819C14.1416 10.1819 10.1891 14.1232 10.1891 18.9679C10.1891 23.8126 14.1416 27.754 18.9999 27.754C20.6911 27.754 22.3358 27.2724 23.7564 26.3611L23.7818 26.3448L25.2749 28.0758L25.2429 28.0977C23.3977 29.3552 21.2389 30.0199 18.9999 30.0199C12.8886 30.0199 7.91675 25.062 7.91675 18.9679ZM18.9999 22.2924C20.8381 22.2924 22.3336 20.8011 22.3336 18.968C22.3336 17.1349 20.8381 15.6437 18.9999 15.6437C17.1616 15.6437 15.6661 17.1349 15.6661 18.968C15.6661 20.8011 17.1616 22.2924 18.9999 22.2924Z" fill="#FF9E00"/>
</svg>
