<svg width="15" height="13" viewBox="0 0 15 13" fill="none" xmlns="http://www.w3.org/2000/svg">
<path d="M2.1998 0.773438H13.3998C13.7711 0.773438 14.1272 0.924289 14.3898 1.19281C14.6523 1.46133 14.7998 1.82551 14.7998 2.20526V10.7962C14.7998 11.1759 14.6523 11.5401 14.3898 11.8086C14.1272 12.0771 13.7711 12.228 13.3998 12.228H2.1998C1.4228 12.228 0.799805 11.5837 0.799805 10.7962V2.20526C0.799805 1.4106 1.4228 0.773438 2.1998 0.773438ZM7.7998 5.7848L13.3998 2.20526H2.1998L7.7998 5.7848ZM2.1998 10.7962H13.3998V3.90196L7.7998 7.47435L2.1998 3.90196V10.7962Z" fill="white"/>
</svg>
