<svg width="24" height="28" viewBox="0 0 24 28" fill="none" xmlns="http://www.w3.org/2000/svg">
<path d="M20.19 5.8143L20.1039 5.90035C19.9133 5.70971 19.6128 5.65992 19.1644 5.81566L19.1245 5.70056L19.1644 5.81566C18.877 5.91548 18.5218 6.0993 18.1074 6.36593L18.0415 6.26347L18.1074 6.36594C17.255 6.91447 16.1447 7.82438 15.1194 8.91203L15.0496 8.98615L14.9642 8.93052C13.105 7.71844 10.8004 7.45512 8.76549 8.10607C5.40431 9.18134 3.14148 12.6155 3.85308 16.4174C4.37768 19.2199 6.60097 21.5089 9.38341 22.1116C9.91733 22.2272 10.4525 22.2851 10.9839 22.2851C11.3464 22.2851 11.7072 22.2581 12.0646 22.2042C12.8038 22.0927 13.411 21.576 13.6488 20.8532L13.6488 20.8532C13.8944 20.1067 13.7049 19.3025 13.1552 18.7528C13.1551 18.7528 13.1551 18.7528 13.1551 18.7527M20.19 5.8143L13.2414 17.2746C12.8564 17.6594 12.8566 18.2823 13.2413 18.6666L13.1551 18.7527M20.19 5.8143L20.1039 5.90036C20.3075 6.10394 20.3222 6.39501 20.2034 6.75643C20.085 7.11651 19.8447 7.50945 19.5985 7.87064C18.9304 8.85035 17.8988 9.98924 17.0377 10.8025L16.9627 10.8733L17.0202 10.959C18.0804 12.5363 18.4218 14.397 18.1652 16.0978C18.0536 16.8377 17.5375 17.445 16.8159 17.6824C16.0716 17.9273 15.2689 17.7377 14.7197 17.1885L14.6335 17.2746L14.7197 17.1885C14.2871 16.756 13.5878 16.756 13.1553 17.1884L20.19 5.8143ZM13.1551 18.7527C12.7229 18.3208 12.7226 17.6208 13.1553 17.1885L13.1551 18.7527ZM10.1026 14.7065L10.2841 14.5994C10.775 14.3096 11.1452 13.856 11.3039 13.3207L11.3039 13.3207C11.3565 13.1432 11.4505 12.9859 11.5822 12.8542L10.1026 14.7065ZM10.1026 14.7065L10.286 14.8103C10.6403 15.011 11.042 15.1177 11.4595 15.1177C12.0967 15.1177 12.6963 14.8693 13.1469 14.4188L13.0607 14.3326M10.1026 14.7065L13.0607 14.3326M13.0607 14.3326L13.1469 14.4188C13.5809 13.9848 13.5752 13.2826 13.1469 12.8542L13.1469 12.8541M13.0607 14.3326L13.1469 12.8541M13.1469 12.8541C12.7154 12.4227 12.0136 12.4227 11.5823 12.8541H13.1469ZM19.4098 6.74149L19.5504 6.4466L19.2511 6.5774C18.7121 6.81289 18.0576 7.28287 17.6089 7.63412L17.5006 7.71893L17.5979 7.81622L18.1347 8.35307L18.2301 8.44844L18.3153 8.34391C18.6674 7.9121 19.1631 7.25907 19.4098 6.74149ZM16.5843 16.9787L16.5843 16.9787C17.0425 16.8279 17.3618 16.457 17.4326 15.9873C17.6533 14.5244 17.3829 12.8955 16.4837 11.4918L16.4082 11.3739L16.3018 11.4649C15.6521 12.0211 14.8559 12.6231 14.1851 12.9005L14.0803 12.9439L14.116 13.0515C14.3295 13.6948 14.181 14.4323 13.6707 14.9426L13.7569 15.0287L13.6707 14.9426C13.08 15.5334 12.2951 15.8585 11.4596 15.8585C10.6241 15.8585 9.83922 15.5334 9.24845 14.9426L9.24843 14.9426L9.10921 14.8034C9.1092 14.8034 9.1092 14.8034 9.1092 14.8034C9.01086 14.705 8.97589 14.5599 9.01865 14.4276C9.06147 14.2952 9.17478 14.198 9.31206 14.1758L9.29262 14.0555L9.31206 14.1758C9.92267 14.0771 10.4296 13.6636 10.5937 13.1101C10.6805 12.8173 10.8412 12.5475 11.0585 12.3303L11.0585 12.3303C11.5484 11.8403 12.2479 11.6838 12.8724 11.8612L12.9783 11.8913L13.0189 11.789C13.2864 11.1163 13.8931 10.3097 14.4565 9.6499L14.5488 9.5418L14.4279 9.4671C13.7608 9.05512 13.0174 8.76541 12.2479 8.62137C7.65316 7.7613 3.7219 11.69 4.58126 16.281C5.05192 18.7953 7.04396 20.8468 9.54024 21.3875C10.3492 21.5627 11.1614 21.5912 11.9542 21.4716C12.4234 21.4009 12.7941 21.0808 12.9451 20.6217L12.8294 20.5836L12.9451 20.6217C13.0677 20.2489 13.0522 19.6975 12.6314 19.2767L12.6314 19.2767C11.9091 18.555 11.9094 17.3861 12.6315 16.6645L12.6316 16.6645C13.3515 15.9445 14.5235 15.9445 15.2435 16.6646L15.3297 16.5784L15.2435 16.6646C15.6637 17.0847 16.213 17.1008 16.5843 16.9787ZM12.5454 16.5783C11.7756 17.3474 11.7753 18.5936 12.5453 19.3629L12.5454 16.5783ZM14.7858 11.7059L14.7167 11.6056L14.7858 11.7059C15.7951 11.0112 16.8413 10.0103 17.6673 9.09697L17.7451 9.01102L17.6631 8.92909L17.0109 8.27686L16.9299 8.19584L16.844 8.27174C15.9395 9.07151 14.9084 10.1632 14.2295 11.1496C13.9297 11.5851 13.7779 11.8827 13.701 12.0762L13.5965 12.3388L13.8592 12.2344C14.0527 12.1575 14.3503 12.0057 14.7858 11.7059Z" fill="transparent" stroke-width="0.243692"/>
</svg>
