<svg width="24" height="28" viewBox="0 0 24 28" fill="none" xmlns="http://www.w3.org/2000/svg">
<path d="M16.6248 6.22441C16.2697 5.86937 15.7977 5.67383 15.2956 5.67383C14.7935 5.67383 14.3215 5.86937 13.9665 6.22437L4.59497 15.596C4.38264 15.8083 4.2374 16.0759 4.17503 16.3696L3.66275 18.781C3.63868 18.8942 3.67356 19.012 3.75546 19.0938C3.82026 19.1586 3.90754 19.194 3.99727 19.194C4.0209 19.194 4.04474 19.1915 4.06833 19.1866L6.47973 18.6743C6.77345 18.6119 7.04094 18.4666 7.25331 18.2543L16.6248 8.88264C17.3576 8.14975 17.3576 6.95726 16.6248 6.22441ZM14.8759 9.66425L14.5643 9.97589L12.8733 8.28487L13.1849 7.97319L14.8759 9.66425ZM13.769 10.7712L12.078 9.08016L12.3896 8.76849L14.0806 10.4595L13.769 10.7712ZM11.5944 9.56378L12.1981 10.1675L6.28429 16.0813C6.07534 16.0827 5.87724 16.0027 5.72715 15.8526C5.65393 15.7794 5.59682 15.6939 5.55797 15.6002L11.5944 9.56378ZM4.57579 17.7743L5.07493 18.2735L4.44115 18.4081L4.57579 17.7743ZM6.33753 18.0052L5.87272 18.104L4.74527 16.9765L4.84403 16.5117C4.87649 16.359 4.94905 16.2189 5.05462 16.1046C5.1091 16.1873 5.17222 16.2649 5.24353 16.3362C5.47815 16.5709 5.77601 16.715 6.09484 16.7544C6.1343 17.0732 6.27837 17.3711 6.513 17.6057C6.5843 17.677 6.66186 17.7401 6.74462 17.7946C6.63033 17.9002 6.49026 17.9728 6.33753 18.0052ZM7.24903 17.2913C7.15537 17.2524 7.06984 17.1953 6.99665 17.1221C6.8466 16.972 6.76603 16.7733 6.76794 16.5649L6.98578 16.3471L12.6817 10.6511L13.2854 11.2548L7.24903 17.2913ZM16.1411 8.39905L15.3596 9.18063L13.6686 7.48957L14.4501 6.70799C14.676 6.48215 14.9762 6.35778 15.2956 6.35778C15.615 6.35778 15.9153 6.48215 16.1411 6.70799C16.6074 7.17424 16.6074 7.93281 16.1411 8.39905Z"/>
<path d="M16.1999 15.6624C15.8649 15.6625 15.7315 15.2216 16.0101 15.0359C16.2025 14.8991 16.4958 15.0209 16.5354 15.2534C16.5814 15.4578 16.409 15.6671 16.1999 15.6624Z"/>
<path d="M20.6134 10.9086L18.1956 8.49079C18.1315 8.42667 18.0445 8.39062 17.9538 8.39062C17.8631 8.39062 17.7761 8.42667 17.712 8.49079L6.02105 20.1819C5.88751 20.3154 5.88751 20.532 6.02105 20.6655L8.43881 23.0833C8.50296 23.1474 8.58993 23.1835 8.68062 23.1835C8.77131 23.1835 8.85831 23.1474 8.92243 23.0833L15.097 16.9086C15.2305 16.7751 15.2305 16.5585 15.097 16.425C14.9635 16.2915 14.7469 16.2915 14.6134 16.425L8.68062 22.3578L6.74652 20.4237L7.27494 19.8953L8.01001 20.6304C8.0768 20.6972 8.16431 20.7305 8.25182 20.7305C8.33933 20.7305 8.42687 20.6971 8.49363 20.6304C8.62717 20.4968 8.6272 20.2803 8.49366 20.1468L7.75855 19.4116L9.20832 17.9619L9.94343 18.697C10.0102 18.7638 10.0977 18.7971 10.1852 18.7971C10.2727 18.7971 10.3603 18.7637 10.427 18.697C10.5606 18.5634 10.5606 18.3469 10.427 18.2133L9.69194 17.4782L11.1417 16.0284L11.8768 16.7635C11.9436 16.8303 12.0311 16.8637 12.1186 16.8637C12.2061 16.8637 12.2936 16.8303 12.3604 16.7635C12.4939 16.63 12.4939 16.4135 12.3604 16.2799L11.6253 15.5448L13.075 14.0951L13.8101 14.8302C13.8769 14.897 13.9644 14.9303 14.0519 14.9303C14.1394 14.9303 14.227 14.897 14.2937 14.8302C14.4273 14.6966 14.4273 14.4801 14.2937 14.3465L13.5586 13.6114L15.0084 12.1616L15.7435 12.8967C15.8103 12.9635 15.8978 12.9969 15.9853 12.9969C16.0728 12.9969 16.1603 12.9635 16.2271 12.8967C16.3606 12.7632 16.3607 12.5467 16.2271 12.4131L15.492 11.678L16.9418 10.2282L17.6769 10.9633C17.7436 11.0301 17.8312 11.0635 17.9187 11.0635C18.0062 11.0635 18.0937 11.0301 18.1605 10.9633C18.294 10.8298 18.2941 10.6133 18.1605 10.4797L17.4254 9.74457L17.9538 9.21615L19.8879 11.1503L17.1351 13.9032C17.0015 14.0368 17.0015 14.2533 17.1351 14.3868C17.2686 14.5204 17.4851 14.5204 17.6187 14.3868L20.6133 11.3921C20.7469 11.2586 20.747 11.0421 20.6134 10.9086Z"/>
</svg>
