<svg width="18" height="18" viewBox="0 0 18 18" fill="none" xmlns="http://www.w3.org/2000/svg">
<path d="M17.2619 2.66015C17.2519 2.65067 15.2785 0.750207 15.2785 0.750207C15.2031 0.677111 15.125 0.601562 14.9794 0.601562H7.03478C6.80273 0.601562 6.61392 0.792189 6.61392 1.02652V2.33148L3.81386 2.81618C3.58943 2.85594 3.43849 3.07285 3.47737 3.29926L3.61948 4.13599C2.70936 4.44527 1.77496 4.76409 0.872909 5.0913C0.659758 5.17 0.5479 5.40933 0.62396 5.62587L2.41831 10.6629C2.45441 10.7643 2.54901 10.8274 2.6499 10.8274C2.67753 10.8274 2.70569 10.8227 2.73318 10.8127C2.86109 10.7662 2.92747 10.6239 2.88146 10.4947L1.11365 5.53213C1.9635 5.22487 2.8436 4.92414 3.70371 4.63179L4.54932 9.61017L5.52235 15.3436C5.55749 15.546 5.73366 15.69 5.93251 15.69C5.95501 15.69 5.97785 15.6881 6.00076 15.6843L8.63613 15.2276L10.6954 14.8712L7.59823 15.9953L5.15583 16.8821L3.259 11.5544C3.21303 11.4252 3.0721 11.3582 2.94417 11.4046C2.81626 11.451 2.74988 11.5934 2.79586 11.7225L4.71959 17.126C4.78111 17.2959 4.94052 17.4016 5.10901 17.4016C5.15557 17.4016 5.20285 17.3935 5.24892 17.3765L7.76469 16.4631L13.4772 14.3897L14.5685 14.2008H16.9792C17.2113 14.2008 17.4001 14.0097 17.4001 13.7749V2.94017C17.4001 2.79143 17.3202 2.71555 17.2619 2.66015ZM16.6098 2.719H15.3784L15.3479 2.71913C15.2889 2.71953 15.1509 2.72055 15.1159 2.68543C15.1078 2.67731 15.0983 2.65021 15.0983 2.59987L15.0955 1.26072L16.6098 2.719ZM16.9079 13.7037H7.10611V8.86042C7.10611 8.72318 6.99593 8.61191 6.86002 8.61191C6.72411 8.61191 6.61392 8.72318 6.61392 8.86042V13.7748C6.61392 14.0096 6.80273 14.2007 7.03478 14.2007H11.6552L8.55292 14.7377L5.99413 15.1811L5.03443 9.52614L3.9756 3.29243L6.61389 2.83573V7.70732C6.61389 7.84457 6.72407 7.95583 6.85998 7.95583C6.99589 7.95583 7.10608 7.84457 7.10608 7.70732V1.09856H14.6029L14.6061 2.60044C14.6061 2.78248 14.661 2.92973 14.7691 3.03815C14.9352 3.20472 15.1701 3.21632 15.3158 3.21632C15.3284 3.21632 15.3403 3.21622 15.3514 3.21615L16.9079 3.21606V13.7037Z"/>
<path d="M8.29248 4.45945C8.29248 4.5967 8.40266 4.70796 8.53857 4.70796H15.5748C15.7107 4.70796 15.8209 4.5967 15.8209 4.45945C15.8209 4.32221 15.7107 4.21094 15.5748 4.21094H8.53857C8.40266 4.21094 8.29248 4.32221 8.29248 4.45945Z" />
<path d="M15.5748 5.97656H8.53857C8.40266 5.97656 8.29248 6.08783 8.29248 6.22508C8.29248 6.36232 8.40266 6.47359 8.53857 6.47359H15.5748C15.7107 6.47359 15.8209 6.36232 15.8209 6.22508C15.8209 6.08783 15.7107 5.97656 15.5748 5.97656Z" />
<path d="M15.5748 7.74219H8.53857C8.40266 7.74219 8.29248 7.85346 8.29248 7.9907C8.29248 8.12795 8.40266 8.23921 8.53857 8.23921H15.5748C15.7107 8.23921 15.8209 8.12795 15.8209 7.9907C15.8209 7.85346 15.7107 7.74219 15.5748 7.74219Z" />
<path d="M15.5748 9.50781H8.53857C8.40266 9.50781 8.29248 9.61908 8.29248 9.75633C8.29248 9.89357 8.40266 10.0048 8.53857 10.0048H15.5748C15.7107 10.0048 15.8209 9.89357 15.8209 9.75633C15.8209 9.61908 15.7107 9.50781 15.5748 9.50781Z"/>
<path d="M15.5748 11.2734H8.53857C8.40266 11.2734 8.29248 11.3847 8.29248 11.522C8.29248 11.6592 8.40266 11.7705 8.53857 11.7705H15.5748C15.7107 11.7705 15.8209 11.6592 15.8209 11.522C15.8209 11.3847 15.7107 11.2734 15.5748 11.2734Z"/>
</svg>
