<svg width="24" height="28" viewBox="0 0 24 28" fill="none" xmlns="http://www.w3.org/2000/svg">
<path d="M11.7289 12.5527H9.29019V9.9459C9.29019 9.86908 9.26164 9.79541 9.21082 9.74109C9.16001 9.68677 9.09109 9.65625 9.01922 9.65625C8.4297 9.65625 7.85343 9.84311 7.36326 10.1932C6.8731 10.5433 6.49106 11.0409 6.26546 11.6231C6.03987 12.2053 5.98084 12.8459 6.09585 13.464C6.21086 14.082 6.49474 14.6497 6.91159 15.0953C7.32844 15.5409 7.85954 15.8444 8.43773 15.9673C9.01591 16.0903 9.61522 16.0272 10.1599 15.786C10.7045 15.5449 11.17 15.1365 11.4975 14.6125C11.8251 14.0886 11.9999 13.4726 11.9999 12.8424C11.9999 12.7656 11.9713 12.6919 11.9205 12.6376C11.8697 12.5833 11.8008 12.5527 11.7289 12.5527ZM9.01922 15.4492C8.39567 15.4496 7.79566 15.1947 7.34252 14.7368C6.88937 14.279 6.61751 13.6529 6.58282 12.9874C6.54812 12.3219 6.75323 11.6675 7.15598 11.1586C7.55873 10.6498 8.12852 10.3252 8.74825 10.2515V12.8424C8.74825 12.9192 8.7768 12.9929 8.82762 13.0472C8.87843 13.1015 8.94736 13.132 9.01922 13.132H11.443C11.3756 13.769 11.0913 14.3572 10.6443 14.7845C10.1973 15.2118 9.61889 15.4484 9.01922 15.4492Z"/>
<path d="M20.1291 5.60156H3.87107C3.7992 5.60156 3.73028 5.63208 3.67946 5.6864C3.62865 5.74072 3.6001 5.81439 3.6001 5.89121V7.62911C3.6001 7.70593 3.62865 7.7796 3.67946 7.83392C3.73028 7.88824 3.7992 7.91876 3.87107 7.91876H4.68397V17.7668H4.413C4.34114 17.7668 4.27221 17.7973 4.2214 17.8517C4.17058 17.906 4.14203 17.9797 4.14203 18.0565V19.2151C4.14203 19.2919 4.17058 19.3656 4.2214 19.4199C4.27221 19.4742 4.34114 19.5047 4.413 19.5047H11.7291V20.6633C11.7293 20.6796 11.7306 20.6958 11.7332 20.7118C11.5517 20.7793 11.3984 20.9132 11.3006 21.09C11.2027 21.2667 11.1666 21.4748 11.1985 21.6773C11.2305 21.8798 11.3286 22.0637 11.4753 22.1962C11.622 22.3288 11.808 22.4016 12.0001 22.4016C12.1922 22.4016 12.3781 22.3288 12.5249 22.1962C12.6716 22.0637 12.7697 21.8798 12.8017 21.6773C12.8336 21.4748 12.7975 21.2667 12.6996 21.09C12.6017 20.9132 12.4485 20.7793 12.267 20.7118C12.2696 20.6958 12.2709 20.6796 12.2711 20.6633V19.5047H19.5872C19.6591 19.5047 19.728 19.4742 19.7788 19.4199C19.8296 19.3656 19.8582 19.2919 19.8582 19.2151V18.0565C19.8582 17.9797 19.8296 17.906 19.7788 17.8517C19.728 17.7973 19.6591 17.7668 19.5872 17.7668H19.3162V7.91876H20.1291C20.201 7.91876 20.2699 7.88824 20.3207 7.83392C20.3715 7.7796 20.4001 7.70593 20.4001 7.62911V5.89121C20.4001 5.81439 20.3715 5.74072 20.3207 5.6864C20.2699 5.63208 20.201 5.60156 20.1291 5.60156ZM5.76784 6.18086H18.2324V7.33946H5.76784V6.18086ZM18.7743 7.91876V17.7668H5.2259V7.91876H18.7743ZM4.14203 7.33946V6.18086H5.2259V7.33946H4.14203ZM12.2711 21.5323C12.2711 21.5896 12.2552 21.6456 12.2254 21.6932C12.1956 21.7408 12.1533 21.778 12.1038 21.7999C12.0543 21.8218 11.9998 21.8275 11.9472 21.8164C11.8947 21.8052 11.8464 21.7776 11.8085 21.7371C11.7706 21.6966 11.7448 21.645 11.7343 21.5888C11.7239 21.5326 11.7292 21.4744 11.7498 21.4214C11.7703 21.3685 11.805 21.3233 11.8496 21.2914C11.8941 21.2596 11.9465 21.2426 12.0001 21.2426C12.0719 21.2427 12.1408 21.2733 12.1916 21.3276C12.2424 21.3819 12.271 21.4555 12.2711 21.5323ZM19.3162 18.9254H4.68397V18.3461H19.3162V18.9254ZM19.8582 7.33946H18.7743V6.18086H19.8582V7.33946Z"/>
<path d="M9.83249 12.2629H12.5422C12.614 12.2629 12.683 12.2324 12.7338 12.1781C12.7846 12.1237 12.8131 12.0501 12.8131 11.9732C12.8122 11.1285 12.4979 10.3187 11.9391 9.72137C11.3804 9.12406 10.6227 8.78807 9.83249 8.78711C9.76063 8.78711 9.6917 8.81763 9.64089 8.87195C9.59007 8.92627 9.56152 8.99994 9.56152 9.07676V11.9732C9.56152 12.0501 9.59007 12.1237 9.64089 12.1781C9.6917 12.2324 9.76063 12.2629 9.83249 12.2629ZM10.1035 9.38234C10.653 9.44895 11.1651 9.71281 11.5561 10.1308C11.9471 10.5488 12.194 11.0962 12.2563 11.6836H10.1035V9.38234Z" />
<path d="M17.284 8.78711H14.3034C14.0519 8.78742 13.8109 8.89432 13.6331 9.08438C13.4553 9.27443 13.3553 9.53211 13.355 9.80088V15.0146C13.3553 15.2833 13.4553 15.541 13.6331 15.7311C13.8109 15.9211 14.0519 16.028 14.3034 16.0283H17.284C17.5355 16.028 17.7765 15.9211 17.9543 15.7311C18.1321 15.541 18.2321 15.2833 18.2324 15.0146V9.80088C18.2321 9.53211 18.1321 9.27443 17.9543 9.08438C17.7765 8.89432 17.5355 8.78742 17.284 8.78711ZM17.6905 15.0146C17.6903 15.1298 17.6475 15.2402 17.5713 15.3217C17.4951 15.4031 17.3918 15.4489 17.284 15.449H14.3034C14.1956 15.4489 14.0923 15.4031 14.0161 15.3217C13.9399 15.2402 13.897 15.1298 13.8969 15.0146V9.80088C13.897 9.68569 13.9399 9.57525 14.0161 9.4938C14.0923 9.41235 14.1956 9.36653 14.3034 9.36641H17.284C17.3918 9.36653 17.4951 9.41235 17.5713 9.4938C17.6475 9.57525 17.6903 9.68569 17.6905 9.80088V15.0146Z"/>
<path d="M16.8777 9.94531H14.7099C14.6381 9.94531 14.5691 9.97583 14.5183 10.0301C14.4675 10.0845 14.439 10.1581 14.439 10.235C14.439 10.3118 14.4675 10.3855 14.5183 10.4398C14.5691 10.4941 14.6381 10.5246 14.7099 10.5246H16.8777C16.9495 10.5246 17.0185 10.4941 17.0693 10.4398C17.1201 10.3855 17.1486 10.3118 17.1486 10.235C17.1486 10.1581 17.1201 10.0845 17.0693 10.0301C17.0185 9.97583 16.9495 9.94531 16.8777 9.94531Z"/>
<path d="M16.8777 11.1055H14.7099C14.6381 11.1055 14.5691 11.136 14.5183 11.1903C14.4675 11.2446 14.439 11.3183 14.439 11.3951C14.439 11.4719 14.4675 11.5456 14.5183 11.5999C14.5691 11.6543 14.6381 11.6848 14.7099 11.6848H16.8777C16.9495 11.6848 17.0185 11.6543 17.0693 11.5999C17.1201 11.5456 17.1486 11.4719 17.1486 11.3951C17.1486 11.3183 17.1201 11.2446 17.0693 11.1903C17.0185 11.136 16.9495 11.1055 16.8777 11.1055Z"/>
<path d="M16.8777 12.2637H14.7099C14.6381 12.2637 14.5691 12.2942 14.5183 12.3485C14.4675 12.4028 14.439 12.4765 14.439 12.5533C14.439 12.6301 14.4675 12.7038 14.5183 12.7581C14.5691 12.8125 14.6381 12.843 14.7099 12.843H16.8777C16.9495 12.843 17.0185 12.8125 17.0693 12.7581C17.1201 12.7038 17.1486 12.6301 17.1486 12.5533C17.1486 12.4765 17.1201 12.4028 17.0693 12.3485C17.0185 12.2942 16.9495 12.2637 16.8777 12.2637Z"/>
<path d="M15.5228 13.4219H14.7099C14.6381 13.4219 14.5691 13.4524 14.5183 13.5067C14.4675 13.561 14.439 13.6347 14.439 13.7115C14.439 13.7883 14.4675 13.862 14.5183 13.9163C14.5691 13.9707 14.6381 14.0012 14.7099 14.0012H15.5228C15.5947 14.0012 15.6636 13.9707 15.7144 13.9163C15.7653 13.862 15.7938 13.7883 15.7938 13.7115C15.7938 13.6347 15.7653 13.561 15.7144 13.5067C15.6636 13.4524 15.5947 13.4219 15.5228 13.4219Z"/>
<path d="M16.6064 13.4219H16.3354C16.2636 13.4219 16.1946 13.4524 16.1438 13.5067C16.093 13.561 16.0645 13.6347 16.0645 13.7115C16.0645 13.7883 16.093 13.862 16.1438 13.9163C16.1946 13.9707 16.2636 14.0012 16.3354 14.0012H16.6064C16.6783 14.0012 16.7472 13.9707 16.798 13.9163C16.8488 13.862 16.8774 13.7883 16.8774 13.7115C16.8774 13.6347 16.8488 13.561 16.798 13.5067C16.7472 13.4524 16.6783 13.4219 16.6064 13.4219Z"/>
</svg>
