<svg width="24" height="28" viewBox="0 0 24 28" fill="none" xmlns="http://www.w3.org/2000/svg">
<path d="M17.5579 10.6405H16.4382C16.2836 10.6405 16.1582 10.7658 16.1582 10.9204V12.0401C16.1582 12.1947 16.2836 12.3201 16.4382 12.3201H16.7181V14.5596H16.1582V13.9997C16.1582 13.8451 16.0329 13.7198 15.8783 13.7198H13.9187V13.4398H15.3184C15.473 13.4398 15.5983 13.3145 15.5983 13.1599V6.44138C15.5983 5.97755 15.2224 5.60156 14.7585 5.60156H10.2795C9.8157 5.60156 9.4397 5.97755 9.4397 6.44138V13.1599C9.4397 13.3145 9.56505 13.4398 9.71964 13.4398H11.1193V13.7198H9.15976C9.00517 13.7198 8.87983 13.8451 8.87983 13.9997V14.5596H8.31995V12.3201H8.59989C8.75448 12.3201 8.87983 12.1947 8.87983 12.0401V10.9204C8.87983 10.7658 8.75448 10.6405 8.59989 10.6405H7.48013C7.32554 10.6405 7.2002 10.7658 7.2002 10.9204V12.0401C7.2002 12.1947 7.32554 12.3201 7.48013 12.3201H7.76007V14.8395C7.76007 14.9941 7.88541 15.1195 8.04001 15.1195H8.87983V15.6793C8.87983 15.8339 9.00517 15.9593 9.15976 15.9593H11.1193V16.7991C11.1193 16.9537 11.2447 17.079 11.3993 17.079H11.6792V19.0386C11.6792 19.1932 11.8046 19.3185 11.9591 19.3185H12.2391V19.8784H9.15976C9.00517 19.8784 8.87983 20.0038 8.87983 20.1584V20.7697C8.44253 20.9243 8.21336 21.4042 8.36799 21.8415C8.52259 22.2788 9.00244 22.5079 9.4397 22.3533C9.87697 22.1987 10.1062 21.7188 9.95154 21.2816C9.86699 21.0424 9.67884 20.8543 9.4397 20.7697V20.4383H12.2391V20.7697C11.8018 20.9243 11.5726 21.4042 11.7273 21.8415C11.8819 22.2788 12.3617 22.5079 12.799 22.3533C13.2363 22.1987 13.4654 21.7188 13.3108 21.2816C13.2263 21.0424 13.0381 20.8543 12.799 20.7697V20.4383H15.5983V20.7697C15.1611 20.9243 14.9319 21.4042 15.0865 21.8415C15.2411 22.2788 15.721 22.5079 16.1582 22.3533C16.5955 22.1987 16.8247 21.7188 16.6701 21.2816C16.5855 21.0424 16.3974 20.8543 16.1582 20.7697V20.1584C16.1582 20.0038 16.0329 19.8784 15.8783 19.8784H12.799V19.3185H13.0789C13.2335 19.3185 13.3588 19.1932 13.3588 19.0386V17.079H13.6388C13.7934 17.079 13.9187 16.9537 13.9187 16.7991V15.9593H15.8783C16.0329 15.9593 16.1582 15.8339 16.1582 15.6793V15.1195H16.998C17.1526 15.1195 17.278 14.9941 17.278 14.8395V12.3201H17.5579C17.7125 12.3201 17.8379 12.1947 17.8379 12.0401V10.9204C17.8379 10.7658 17.7125 10.6405 17.5579 10.6405ZM7.76007 11.7602V11.2003H8.31995V11.7602H7.76007ZM9.15976 21.838C9.00517 21.838 8.87983 21.7127 8.87983 21.5581C8.87983 21.4035 9.00517 21.2781 9.15976 21.2781C9.31436 21.2781 9.4397 21.4035 9.4397 21.5581C9.4397 21.7127 9.31436 21.838 9.15976 21.838ZM15.8783 21.2781C16.0329 21.2781 16.1582 21.4035 16.1582 21.5581C16.1582 21.7127 16.0329 21.838 15.8783 21.838C15.7237 21.838 15.5983 21.7127 15.5983 21.5581C15.5983 21.4035 15.7237 21.2781 15.8783 21.2781ZM9.99958 12.88V6.44138C9.99958 6.28678 10.1249 6.16144 10.2795 6.16144H14.7585C14.9131 6.16144 15.0385 6.28678 15.0385 6.44138V12.88H9.99958ZM13.3588 13.4398V13.7198H11.6792V13.4398H13.3588ZM12.519 21.838C12.3644 21.838 12.2391 21.7127 12.2391 21.5581C12.2391 21.4035 12.3644 21.2781 12.519 21.2781C12.6736 21.2781 12.799 21.4035 12.799 21.5581C12.799 21.7127 12.6736 21.838 12.519 21.838ZM12.799 18.7587H12.2391V17.079H12.799V18.7587ZM13.3588 16.5192H11.6792V15.9593H13.3588V16.5192ZM15.5983 15.3994H9.4397V14.2797H15.5983V15.3994ZM17.278 11.7602H16.7181V11.2003H17.278V11.7602Z"/>
</svg>
