<svg width="11" height="18" viewBox="0 0 11 18" fill="none" xmlns="http://www.w3.org/2000/svg">
<path d="M7.33691 2.57031H6.10645V0.847656C6.10645 0.711747 5.99626 0.601562 5.86035 0.601562C5.72444 0.601562 5.61426 0.711747 5.61426 0.847656V2.57031H5.12207V0.847656C5.12207 0.711747 5.01189 0.601562 4.87598 0.601562C4.74007 0.601562 4.62988 0.711747 4.62988 0.847656V2.57031H3.39941C1.63535 2.57031 0.200195 4.00547 0.200195 5.76953V12.2336C0.200195 15.0832 2.51853 17.4016 5.36816 17.4016C8.2178 17.4016 10.5361 15.0832 10.5361 12.2336V5.76953C10.5361 4.00547 9.10098 2.57031 7.33691 2.57031ZM5.36816 5.03125C5.63956 5.03125 5.86035 5.25205 5.86035 5.52344V7C5.86035 7.27139 5.63956 7.49219 5.36816 7.49219C5.09677 7.49219 4.87598 7.27139 4.87598 7V5.52344C4.87598 5.25205 5.09677 5.03125 5.36816 5.03125ZM10.0439 12.2336C10.0439 14.8118 7.94641 16.9094 5.36816 16.9094C2.78992 16.9094 0.692383 14.8118 0.692383 12.2336V6.05795C0.978803 6.15954 1.18457 6.43307 1.18457 6.75391V11.2492C1.18457 11.3851 1.29475 11.4953 1.43066 11.4953C1.56657 11.4953 1.67676 11.3851 1.67676 11.2492V6.75391C1.67676 6.16312 1.25817 5.66837 0.70203 5.55034C0.814084 4.15988 1.9806 3.0625 3.39941 3.0625H5.12207V4.5702C4.69797 4.67976 4.38379 5.0656 4.38379 5.52344V7C4.38379 7.45783 4.69797 7.84367 5.12207 7.95324V9.70703C5.12207 9.84294 5.23225 9.95312 5.36816 9.95312C5.50407 9.95312 5.61426 9.84294 5.61426 9.70703V7.95324C6.03836 7.84367 6.35254 7.45783 6.35254 7V5.52344C6.35254 5.0656 6.03836 4.67976 5.61426 4.5702V3.0625H7.33691C8.75573 3.0625 9.92224 4.15988 10.0343 5.55034C9.47816 5.66837 9.05957 6.16312 9.05957 6.75391V12.2336C9.05957 14.2691 7.40362 15.925 5.36816 15.925C3.33271 15.925 1.67676 14.2691 1.67676 12.2336C1.67676 12.0977 1.56657 11.9875 1.43066 11.9875C1.29475 11.9875 1.18457 12.0977 1.18457 12.2336C1.18457 14.5404 3.06131 16.4172 5.36816 16.4172C7.67501 16.4172 9.55176 14.5404 9.55176 12.2336V6.75391C9.55176 6.43307 9.75753 6.15954 10.0439 6.05795V12.2336Z"/>
</svg>
