<svg width="17" height="18" viewBox="0 0 17 18" fill="none" xmlns="http://www.w3.org/2000/svg">
<path d="M12.6319 14.9004C12.5858 14.8543 12.5233 14.8284 12.458 14.8284H7.53113C7.25535 14.8284 6.98576 14.7161 6.7915 14.5203L4.54305 12.2543C4.4474 12.1579 4.29167 12.1573 4.19526 12.253C4.09885 12.3486 4.09826 12.5044 4.19391 12.6008L6.44236 14.8668C6.72831 15.155 7.12516 15.3203 7.53113 15.3203H12.3561L14.3648 17.3289C14.4128 17.3769 14.4758 17.4009 14.5387 17.4009C14.6016 17.4009 14.6646 17.3769 14.7126 17.3289C14.8087 17.2328 14.8087 17.0771 14.7126 16.9811L12.6319 14.9004Z"/>
<path d="M16.6901 13.6828L14.3046 11.2973C14.046 10.3953 13.222 9.77133 12.2769 9.77133C11.4935 9.77133 10.7789 10.2016 10.4118 10.8944C10.4065 10.9045 10.3969 10.9107 10.3868 10.9107H9.21549L7.30389 8.99916C7.1256 8.82084 6.88854 8.72266 6.6364 8.72266C6.38426 8.72266 6.1472 8.82087 5.96891 8.99916C5.85295 9.11512 5.77402 9.25406 5.7312 9.40139C5.37071 9.05294 4.79409 9.05639 4.43819 9.41231C4.32552 9.52499 4.24842 9.65983 4.20641 9.80287C3.81677 9.50751 3.25763 9.53725 2.90239 9.89249C2.51442 10.2804 2.51442 10.9117 2.9017 11.299L3.45389 11.8555C3.54958 11.9519 3.70528 11.9525 3.80169 11.8568C3.8981 11.7612 3.89869 11.6054 3.80303 11.509L3.25015 10.9519C3.15515 10.8568 3.10278 10.7305 3.10278 10.5961C3.10278 10.4617 3.15512 10.3354 3.25015 10.2403C3.34519 10.1453 3.4715 10.093 3.60592 10.093C3.74033 10.093 3.86665 10.1453 3.96168 10.2403L6.82066 13.0993C6.86677 13.1454 6.92933 13.1713 6.99456 13.1713H10.7334C10.8693 13.1713 10.9794 13.0612 10.9794 12.9254C10.9794 12.7896 10.8693 12.6795 10.7334 12.6795H8.20627C7.85428 12.6795 7.5679 12.3931 7.5679 12.0411C7.5679 11.6891 7.85428 11.4027 8.20627 11.4027H10.3868C10.5795 11.4027 10.7557 11.2962 10.8465 11.1248C11.1281 10.5934 11.6762 10.2633 12.2769 10.2633C13.0196 10.2633 13.6648 10.7656 13.8457 11.4849C13.8566 11.528 13.8789 11.5673 13.9103 11.5988L16.3423 14.0308C16.3903 14.0788 16.4533 14.1028 16.5162 14.1028C16.5792 14.1028 16.6421 14.0788 16.6902 14.0308C16.7862 13.9346 16.7862 13.7789 16.6901 13.6828ZM7.09644 12.6794L4.78586 10.3687C4.61812 10.2009 4.61816 9.92784 4.78599 9.76004C4.95388 9.59215 5.22701 9.59218 5.39481 9.76004L7.18718 11.5524C7.11595 11.7004 7.07601 11.8661 7.07601 12.041C7.07601 12.2777 7.1493 12.4976 7.27421 12.6794H7.09644ZM7.49435 11.164L6.31671 9.98631C6.14045 9.81005 6.14045 9.52322 6.31671 9.34693C6.4021 9.26153 6.51562 9.21448 6.6364 9.21448C6.75717 9.21448 6.8707 9.26153 6.95609 9.34693L8.51986 10.9107H8.2063C7.93665 10.9107 7.68884 11.0058 7.49435 11.164Z"/>
<path d="M6.2042 15.3839C6.06837 15.3839 5.95825 15.4941 5.95825 15.6299V16.1783C5.95825 16.5817 5.63007 16.9099 5.22662 16.9099H1.22352C0.820106 16.9099 0.491886 16.5818 0.491886 16.1783V8.95102C0.491886 8.8152 0.381769 8.70508 0.245943 8.70508C0.110117 8.70508 0 8.8152 0 8.95102V16.1783C0 16.853 0.548847 17.4018 1.22352 17.4018H5.22662C5.90126 17.4018 6.45014 16.853 6.45014 16.1783V15.6299C6.45014 15.4941 6.34002 15.3839 6.2042 15.3839Z"/>
<path d="M0.246432 8.14864C0.382258 8.14864 0.492375 8.03853 0.492375 7.9027V7.58917C0.492375 7.15598 0.658337 6.74604 0.959667 6.43484L2.03562 5.3238H4.41546L5.49142 6.43484C5.79275 6.74604 5.95871 7.15598 5.95871 7.58917V8.04138C5.95871 8.17721 6.06883 8.28732 6.20465 8.28732C6.34048 8.28732 6.4506 8.17721 6.4506 8.04138V7.58917C6.4506 7.0276 6.23545 6.4961 5.84476 6.09269L4.69633 4.90678C4.68528 4.89537 4.67315 4.88521 4.66029 4.87625V3.93203C4.66029 3.53157 4.35621 3.20089 3.96686 3.15852V2.30677H6.36084V2.96704C6.36084 3.24608 6.58783 3.47306 6.86686 3.47306H7.56003C7.83906 3.47306 8.06605 3.24608 8.06605 2.96704V2.16943C8.06605 1.30489 7.36272 0.601562 6.49821 0.601562H3.08488C2.94905 0.601562 2.83894 0.711679 2.83894 0.847506C2.83894 0.983332 2.94905 1.09345 3.08488 1.09345H6.49821C7.09149 1.09345 7.5742 1.57612 7.5742 2.16943V2.96704C7.5742 2.97485 7.56787 2.98118 7.56006 2.98118H6.8669C6.85909 2.98118 6.85276 2.97485 6.85276 2.96704V2.16943C6.85276 1.97393 6.69372 1.81488 6.49821 1.81488H1.15449C1.13196 1.81488 1.11366 1.79658 1.11366 1.77406V1.13428C1.11366 1.11178 1.13196 1.09345 1.15449 1.09345H2.03673C2.17256 1.09345 2.28268 0.983332 2.28268 0.847506C2.28268 0.711679 2.17256 0.601562 2.03673 0.601562H1.15449C0.860732 0.601562 0.621774 0.840521 0.621774 1.13428V1.77409C0.621774 2.06781 0.860732 2.30677 1.15449 2.30677H2.48425V3.15852C2.09488 3.20089 1.79082 3.53157 1.79082 3.93203V4.87625C1.77797 4.88521 1.76587 4.89537 1.75479 4.90678L0.606361 6.09269C0.215672 6.4961 0.000488281 7.02757 0.000488281 7.58917V7.9027C0.000488281 8.03853 0.110605 8.14864 0.246432 8.14864ZM3.47501 2.30677V3.15383H2.97614V2.30677H3.47501ZM2.56899 3.64572H3.8821C4.03996 3.64572 4.16841 3.77416 4.16841 3.93203V4.83192H2.28268V3.93203C2.28268 3.77416 2.41113 3.64572 2.56899 3.64572Z"/>
<path d="M7.97387 4.18382C7.3037 5.13487 6.96387 5.83673 6.96387 6.26985C6.96387 6.86552 7.28828 7.4145 7.81047 7.70255C7.84815 7.72334 7.88888 7.73321 7.92905 7.73321C8.01575 7.73321 8.0998 7.68727 8.14462 7.60601C8.21024 7.48707 8.16702 7.33747 8.04808 7.27189C7.68271 7.07034 7.45575 6.68641 7.45575 6.26985C7.45575 6.12045 7.54541 5.64574 8.37594 4.46715C8.42785 4.3935 8.50928 4.35126 8.59936 4.35126C8.68941 4.35126 8.77083 4.3935 8.82274 4.46715C9.09203 4.84925 9.31669 5.20819 9.47249 5.50513C9.53565 5.62538 9.68433 5.67178 9.80454 5.60862C9.92483 5.54553 9.97116 5.39685 9.90807 5.27656C9.74011 4.95648 9.51023 4.58881 9.22481 4.18379C9.08167 3.98067 8.84786 3.85938 8.59936 3.85938C8.35086 3.85941 8.11701 3.98067 7.97387 4.18382Z"/>
<path d="M9.46019 6.28625C8.73721 7.25589 8.58545 7.74985 8.58545 7.99349C8.58545 8.65515 9.12374 9.19344 9.78542 9.19344C10.4471 9.19344 10.9854 8.65515 10.9854 7.99349C10.9854 7.74988 10.8336 7.25596 10.1106 6.28622C10.0333 6.18253 9.91472 6.12305 9.78536 6.12305C9.65599 6.12311 9.53745 6.1826 9.46019 6.28625ZM10.4935 7.99349C10.4935 8.38392 10.1758 8.70155 9.78542 8.70155C9.395 8.70155 9.07734 8.38392 9.07734 7.99349C9.07734 7.77939 9.35283 7.2678 9.78542 6.67406C10.218 7.26783 10.4935 7.77943 10.4935 7.99349Z"/>
</svg>
