<svg width="9" height="18" viewBox="0 0 9 18" fill="none" xmlns="http://www.w3.org/2000/svg">
<path d="M4.13753 12.0397L3.9103 12.5002L3.4022 12.574C3.00766 12.6313 2.85003 13.1166 3.13547 13.3948L3.50313 13.7532L3.41631 14.2593C3.34894 14.6522 3.76169 14.9521 4.11456 14.7666L4.56908 14.5276L5.02353 14.7665C5.37637 14.9521 5.78918 14.6521 5.72175 14.2592L5.63496 13.7532L6.00263 13.3948C6.2881 13.1165 6.13033 12.6312 5.73593 12.574L5.22779 12.5001L5.00057 12.0397C4.82403 11.6819 4.31403 11.6822 4.13753 12.0397ZM4.34914 12.7231L4.56908 12.2775L4.78902 12.7231C4.85914 12.8652 4.99463 12.9636 5.15137 12.9864L5.6432 13.0579L5.28725 13.4048C5.17388 13.5154 5.12214 13.6746 5.14891 13.8307L5.23291 14.3206L4.79303 14.0893C4.65285 14.0156 4.48537 14.0155 4.34517 14.0893L3.90525 14.3206L3.98925 13.8308C4.01606 13.6747 3.96434 13.5154 3.85088 13.4048L3.49499 13.0579L3.98676 12.9864C4.14353 12.9636 4.27902 12.8652 4.34914 12.7231Z"/>
<path d="M4.90324 10.8258C4.87387 10.9585 4.95764 11.0899 5.09033 11.1193C6.17932 11.3603 6.96968 12.3456 6.96968 13.4623C6.96968 14.7858 5.8929 15.8626 4.5693 15.8626C3.24573 15.8626 2.16895 14.7859 2.16895 13.4623C2.16895 12.3456 2.95931 11.3603 4.04827 11.1192C4.18096 11.0899 4.26473 10.9585 4.23536 10.8258C4.20596 10.6931 4.07468 10.6093 3.94189 10.6387C2.63965 10.9269 1.67676 12.0889 1.67676 13.4623C1.67676 15.0572 2.97434 16.3548 4.5693 16.3548C6.16426 16.3548 7.46188 15.0573 7.46188 13.4623C7.46188 12.0861 6.496 10.9263 5.19671 10.6387C5.06421 10.6094 4.9326 10.6931 4.90324 10.8258Z"/>
<path d="M7.23721 4.63619C7.36298 4.68774 7.5067 4.62746 7.55818 4.50165L8.90508 1.21129C9.02412 0.920503 8.80982 0.601562 8.49584 0.601562H6.71155C6.53124 0.601562 6.37059 0.709385 6.30227 0.876238L4.5693 5.10994L2.83633 0.876238C2.83633 0.876238 2.8363 0.876205 2.8363 0.876172C2.76795 0.709352 2.60733 0.601563 2.42709 0.601563H0.642795C0.32858 0.601563 0.114608 0.920634 0.233522 1.21129L3.07727 8.15857C2.78251 8.25419 2.56871 8.53129 2.56871 8.85752V10.0701C1.4093 10.7566 0.630031 12.02 0.630031 13.4623C0.630031 15.6344 2.39716 17.4016 4.5693 17.4016C6.74144 17.4016 8.5086 15.6344 8.5086 13.4623C8.5086 12.02 7.72933 10.7565 6.56989 10.0701V8.85748C6.56989 8.53126 6.35612 8.25415 6.06133 8.15854L7.12049 5.57099C7.17194 5.44522 7.11173 5.3015 6.98593 5.25001C6.86016 5.19853 6.71647 5.25878 6.66495 5.38455L5.54413 8.12277H3.86793C4.00502 7.78782 6.6326 1.36863 6.74508 1.09375H8.42135L7.10267 4.31521C7.05122 4.44098 7.1114 4.5847 7.23721 4.63619ZM8.01641 13.4623C8.01641 15.3631 6.47005 16.9094 4.5693 16.9094C2.66856 16.9094 1.12222 15.3631 1.12222 13.4623C1.12222 11.5489 2.68208 10.0152 4.5693 10.0152H4.56946C6.46952 10.0154 8.01641 11.5606 8.01641 13.4623ZM5.83515 8.615C5.9689 8.615 6.0777 8.7238 6.0777 8.85755V9.82264C5.60415 9.62678 5.09083 9.52306 4.56933 9.52306C4.56894 9.52306 4.56855 9.52306 4.56812 9.52306C4.04423 9.52319 3.53094 9.62819 3.06093 9.8226V8.85752C3.06093 8.72377 3.16974 8.61496 3.30352 8.61496H5.83515V8.615ZM3.46525 7.80715L0.717247 1.09375H2.39352L4.30339 5.75956L3.46525 7.80715Z"/>
</svg>
