<svg width="16" height="16" viewBox="0 0 16 16" fill="none" xmlns="http://www.w3.org/2000/svg">
<path fill-rule="evenodd" clip-rule="evenodd" d="M10.6553 10.0578H11.3137L14.847 13.6078C15.1887 13.9495 15.1887 14.5078 14.847 14.8495C14.5053 15.1911 13.947 15.1911 13.6053 14.8495L10.0637 11.3078V10.6495L9.83867 10.4161C8.67201 11.4161 7.08034 11.9328 5.38867 11.6495C3.07201 11.2578 1.22201 9.32448 0.938672 6.99115C0.505339 3.46615 3.47201 0.49948 6.99701 0.932813C9.33034 1.21615 11.2637 3.06615 11.6553 5.38281C11.9387 7.07448 11.422 8.66615 10.422 9.83281L10.6553 10.0578ZM2.56367 6.30782C2.56367 8.38281 4.23867 10.0578 6.31367 10.0578C8.38867 10.0578 10.0637 8.38281 10.0637 6.30782C10.0637 4.23282 8.38867 2.55782 6.31367 2.55782C4.23867 2.55782 2.56367 4.23282 2.56367 6.30782Z" fill="black"/>
</svg>
