<svg width="18" height="24" viewBox="0 0 18 24" fill="none" xmlns="http://www.w3.org/2000/svg">
<path d="M3.62 10.6556C5.06 13.8 7.38 16.3778 10.21 17.9778L12.41 15.5333C12.69 15.2222 13.08 15.1333 13.43 15.2556C14.55 15.6667 15.75 15.8889 17 15.8889C17.2652 15.8889 17.5196 16.006 17.7071 16.2143C17.8946 16.4227 18 16.7053 18 17V20.8889C18 21.1836 17.8946 21.4662 17.7071 21.6746C17.5196 21.8829 17.2652 22 17 22C12.4913 22 8.1673 20.0099 4.97918 16.4676C1.79107 12.9252 0 8.12076 0 3.11111C0 2.81643 0.105357 2.53381 0.292893 2.32544C0.48043 2.11706 0.734784 2 1 2H4.5C4.76522 2 5.01957 2.11706 5.20711 2.32544C5.39464 2.53381 5.5 2.81643 5.5 3.11111C5.5 4.5 5.7 5.83333 6.07 7.07778C6.18 7.46667 6.1 7.9 5.82 8.21111L3.62 10.6556Z" fill="#072952"/>
</svg>
