<svg width="29" height="28" viewBox="0 0 29 28" fill="none" xmlns="http://www.w3.org/2000/svg">
<path d="M27.925 3.91174C27.9088 3.89666 24.702 0.873198 24.702 0.873198C24.5794 0.756909 24.4526 0.636719 24.2159 0.636719H11.306C10.9289 0.636719 10.6221 0.939988 10.6221 1.31279V3.38886L6.07198 4.15998C5.70727 4.22323 5.462 4.56831 5.52518 4.92851L5.75611 6.25967C4.27716 6.75171 2.75876 7.25893 1.29293 7.77949C0.946558 7.90469 0.764789 8.28545 0.888386 8.62994L3.80421 16.6435C3.86286 16.8047 4.01659 16.9051 4.18055 16.9051C4.22544 16.9051 4.27119 16.8976 4.31587 16.8817C4.52372 16.8078 4.63158 16.5813 4.55683 16.3758L1.68414 8.48081C3.06514 7.99198 4.4953 7.51354 5.89298 7.04844L7.2671 14.9686L8.84827 24.09C8.90537 24.412 9.19165 24.6411 9.51477 24.6411C9.55135 24.6411 9.58846 24.6381 9.62568 24.632L13.9082 23.9055L17.2545 23.3384L12.2216 25.1268L8.25268 26.5376L5.17033 18.0616C5.09563 17.8562 4.86662 17.7495 4.65872 17.8234C4.45088 17.8972 4.34301 18.1237 4.41772 18.3292L7.54378 26.9256C7.64376 27.1959 7.90279 27.364 8.17659 27.364C8.25225 27.364 8.32909 27.3511 8.40395 27.3241L12.4921 25.8709L21.7748 22.5724L23.5482 22.2718H27.4657C27.8428 22.2718 28.1496 21.9679 28.1496 21.5942V4.35723C28.1497 4.1206 28.0198 3.99988 27.925 3.91174ZM26.8654 4.00536H24.8643L24.8147 4.00557C24.7189 4.00621 24.4946 4.00784 24.4377 3.95196C24.4246 3.93905 24.4092 3.89593 24.4092 3.81585L24.4046 1.68538L26.8654 4.00536ZM27.3499 21.481H11.4219V13.7758C11.4219 13.5575 11.2428 13.3805 11.022 13.3805C10.8011 13.3805 10.6221 13.5575 10.6221 13.7758V21.5941C10.6221 21.9677 10.9289 22.2717 11.306 22.2717H18.8141L13.7729 23.126L9.61491 23.8315L8.05539 14.8349L6.3348 4.91765L10.622 4.19108V11.9413C10.622 12.1597 10.8011 12.3367 11.0219 12.3367C11.2428 12.3367 11.4218 12.1597 11.4218 11.9413V1.42739H23.6042L23.6094 3.81675C23.6094 4.10636 23.6985 4.34063 23.8742 4.51311C24.1442 4.77811 24.5258 4.79656 24.7627 4.79656C24.7831 4.79656 24.8024 4.7964 24.8204 4.7963L27.3499 4.79614V21.481Z" fill="white"/>
<path d="M13.3496 6.77622C13.3496 6.99457 13.5287 7.17158 13.7495 7.17158H25.1833C25.4042 7.17158 25.5832 6.99457 25.5832 6.77622C25.5832 6.55788 25.4042 6.38086 25.1833 6.38086H13.7495C13.5287 6.38086 13.3496 6.55788 13.3496 6.77622Z" fill="white"/>
<path d="M25.1833 9.18945H13.7495C13.5287 9.18945 13.3496 9.36647 13.3496 9.58481C13.3496 9.80316 13.5287 9.98018 13.7495 9.98018H25.1833C25.4042 9.98018 25.5832 9.80316 25.5832 9.58481C25.5832 9.36647 25.4042 9.18945 25.1833 9.18945Z" fill="white"/>
<path d="M25.1833 11.998H13.7495C13.5287 11.998 13.3496 12.1751 13.3496 12.3934C13.3496 12.6118 13.5287 12.7888 13.7495 12.7888H25.1833C25.4042 12.7888 25.5832 12.6118 25.5832 12.3934C25.5832 12.1751 25.4042 11.998 25.1833 11.998Z" fill="white"/>
<path d="M25.1833 14.8066H13.7495C13.5287 14.8066 13.3496 14.9837 13.3496 15.202C13.3496 15.4204 13.5287 15.5974 13.7495 15.5974H25.1833C25.4042 15.5974 25.5832 15.4204 25.5832 15.202C25.5832 14.9837 25.4042 14.8066 25.1833 14.8066Z" fill="white"/>
<path d="M25.1833 17.6152H13.7495C13.5287 17.6152 13.3496 17.7923 13.3496 18.0106C13.3496 18.2289 13.5287 18.406 13.7495 18.406H25.1833C25.4042 18.406 25.5832 18.2289 25.5832 18.0106C25.5832 17.7923 25.4042 17.6152 25.1833 17.6152Z" fill="white"/>
</svg>
