<svg width="34" height="24" viewBox="0 0 34 24" fill="none" xmlns="http://www.w3.org/2000/svg">
<g clip-path="url(#clip0)">
<path d="M0.37207 3C0.37207 1.34315 1.61501 0 3.14824 0H30.91C32.4432 0 33.6862 1.34315 33.6862 3V21C33.6862 22.6569 32.4432 24 30.91 24H3.14824C1.61501 24 0.37207 22.6569 0.37207 21V3Z" fill="#D8E3F3"/>
<path d="M29.0429 7.52344H27.2977C26.77 7.52344 26.3642 7.69888 26.1206 8.26905L22.7925 16.4708H25.1465C25.1465 16.4708 25.5524 15.3743 25.6336 15.1112C25.8771 15.1112 28.1906 15.1112 28.5153 15.1112C28.5965 15.4182 28.7994 16.4269 28.7994 16.4269H30.9099L29.0429 7.52344ZM26.283 13.2691C26.4859 12.7427 27.1759 10.7691 27.1759 10.7691C27.1759 10.8129 27.3788 10.2427 27.46 9.93572L27.6224 10.7252C27.6224 10.7252 28.0688 12.8743 28.15 13.3129H26.283V13.2691Z" fill="#3362AB"/>
<path d="M22.9544 13.5349C22.9544 15.377 21.412 16.6051 19.0174 16.6051C18.0027 16.6051 17.0286 16.3858 16.501 16.1226L16.8257 14.1051L17.1098 14.2366C17.8404 14.5875 18.3274 14.7191 19.2203 14.7191C19.8697 14.7191 20.5597 14.4559 20.5597 13.8419C20.5597 13.4472 20.2756 13.184 19.3827 12.7454C18.5303 12.3068 17.3939 11.6051 17.3939 10.3331C17.3939 8.57874 18.9768 7.39453 21.2091 7.39453C22.0614 7.39453 22.792 7.56997 23.2385 7.78927L22.9138 9.71909L22.7514 9.54365C22.3456 9.36822 21.8179 9.19278 21.0468 9.19278C20.1944 9.23664 19.7886 9.63137 19.7886 9.98225C19.7886 10.377 20.2756 10.684 21.0468 11.0787C22.3456 11.7366 22.9544 12.4823 22.9544 13.5349Z" fill="#3362AB"/>
<path d="M3.14795 7.61294L3.18854 7.4375H6.67905C7.1661 7.4375 7.53138 7.61294 7.65314 8.18311L8.4243 12.1305C7.65314 10.0252 5.8673 8.31469 3.14795 7.61294Z" fill="#F9B50B"/>
<path d="M13.3355 7.52628L9.80439 16.4298H7.40974L5.38037 8.97365C6.84152 9.98242 8.05914 11.5614 8.5056 12.6579L8.74912 13.5789L10.9408 7.48242H13.3355V7.52628Z" fill="#3362AB"/>
<path d="M14.2692 7.48242H16.5015L15.0809 16.4298H12.8486L14.2692 7.48242Z" fill="#3362AB"/>
</g>
<defs>
<clipPath id="clip0">
<rect width="33.3141" height="24" fill="white" transform="translate(0.37207)"/>
</clipPath>
</defs>
</svg>
