<svg width="38" height="38" viewBox="0 0 38 38" fill="none" xmlns="http://www.w3.org/2000/svg">
<path d="M0 19C0 8.50659 8.50659 0 19 0C29.4934 0 38 8.50659 38 19C38 29.4934 29.4934 38 19 38C8.50659 38 0 29.4934 0 19Z" fill="#4C6C91"/>
<path d="M19.9939 25.2355C19.9939 25.2355 20.3597 25.1956 20.5471 24.9981C20.7185 24.8171 20.7126 24.4756 20.7126 24.4756C20.7126 24.4756 20.6898 22.8808 21.4441 22.6454C22.1876 22.4138 23.1421 24.1876 24.1552 24.8696C24.9204 25.3853 25.5013 25.2725 25.5013 25.2725L28.2084 25.2355C28.2084 25.2355 29.6239 25.1499 28.9528 24.0572C28.8973 23.9677 28.5613 23.2486 26.9406 21.7716C25.2426 20.2255 25.4706 20.4756 27.5145 17.8008C28.7595 16.172 29.2571 15.1776 29.1015 14.7524C28.9538 14.3457 28.0379 14.4537 28.0379 14.4537L24.9908 14.4722C24.9908 14.4722 24.7648 14.442 24.5973 14.5403C24.4337 14.6366 24.3277 14.8614 24.3277 14.8614C24.3277 14.8614 23.8459 16.1214 23.2026 17.1936C21.8456 19.4549 21.3034 19.5746 21.0813 19.4345C20.5649 19.1066 20.6938 18.119 20.6938 17.4174C20.6938 15.2253 21.0328 14.3116 20.0346 14.0752C19.7035 13.9964 19.4597 13.9448 18.6121 13.936C17.5248 13.9253 16.6049 13.9399 16.0835 14.19C15.7365 14.3564 15.4689 14.7281 15.6325 14.7495C15.8337 14.7757 16.2897 14.8701 16.5315 15.1931C16.8438 15.6106 16.8329 16.5466 16.8329 16.5466C16.8329 16.5466 17.0123 19.127 16.4136 19.4471C16.0032 19.667 15.4402 19.2185 14.2299 17.1664C13.6103 16.1156 13.1425 14.9538 13.1425 14.9538C13.1425 14.9538 13.0523 14.7368 12.8907 14.62C12.6954 14.479 12.4228 14.4352 12.4228 14.4352L9.5274 14.4537C9.5274 14.4537 9.09225 14.4653 8.93265 14.6512C8.79091 14.8156 8.92175 15.1571 8.92175 15.1571C8.92175 15.1571 11.1887 20.3637 13.756 22.9879C16.1102 25.3931 18.7826 25.2355 18.7826 25.2355H19.9939Z" fill="white"/>
</svg>
